<?xml version="1.0" encoding="UTF-8" standalone="no"?>
<!DOCTYPE svg PUBLIC "-//W3C//DTD SVG 1.1//EN"
 "http://www.w3.org/Graphics/SVG/1.1/DTD/svg11.dtd">
<!-- Generated by graphviz version 2.43.0 (0)
 -->
<!-- Title: rp_travels Pages: 1 -->
<svg width="1100pt" height="1272pt"
 viewBox="0.00 0.00 1100.00 1272.00" xmlns="http://www.w3.org/2000/svg" xmlns:xlink="http://www.w3.org/1999/xlink">
<g id="graph0" class="graph" transform="scale(1 1) rotate(0) translate(4 1268)">
<title>rp_travels</title>
<polygon fill="white" stroke="transparent" points="-4,4 -4,-1268 933,-1268 933,4 -4,4"/>
<!-- usuarios -->
<g id="node1" class="node">
<title>usuarios</title>
<polygon fill="#0f766e" stroke="transparent" points="8,-488 8,-511 190,-511 190,-488 8,-488"/>
<polygon fill="none" stroke="black" points="8,-488 8,-511 190,-511 190,-488 8,-488"/>
<text text-anchor="start" x="70" y="-497.4" font-family="Helvetica,sans-Serif" font-weight="bold" font-size="12.00" fill="#ffffff">usuarios</text>
<polygon fill="#ccfbf1" stroke="transparent" points="8,-467 8,-488 190,-488 190,-467 8,-467"/>
<polygon fill="none" stroke="black" points="8,-467 8,-488 190,-488 190,-467 8,-467"/>
<text text-anchor="start" x="13" y="-475" font-family="Helvetica,sans-Serif" font-size="10.00">🔑 id &#160;INT</text>
<polygon fill="#ffffff" stroke="transparent" points="8,-446 8,-467 190,-467 190,-446 8,-446"/>
<polygon fill="none" stroke="black" points="8,-446 8,-467 190,-467 190,-446 8,-446"/>
<text text-anchor="start" x="13" y="-454" font-family="Helvetica,sans-Serif" font-size="10.00">nombre &#160;VARCHAR(100)</text>
<polygon fill="#ffffff" stroke="transparent" points="8,-425 8,-446 190,-446 190,-425 8,-425"/>
<polygon fill="none" stroke="black" points="8,-425 8,-446 190,-446 190,-425 8,-425"/>
<text text-anchor="start" x="13" y="-433" font-family="Helvetica,sans-Serif" font-size="10.00">apellidos &#160;VARCHAR(150)</text>
<polygon fill="#ffffff" stroke="transparent" points="8,-404 8,-425 190,-425 190,-404 8,-404"/>
<polygon fill="none" stroke="black" points="8,-404 8,-425 190,-425 190,-404 8,-404"/>
<text text-anchor="start" x="13" y="-412" font-family="Helvetica,sans-Serif" font-size="10.00">email &#160;VARCHAR(150) &#160;UNIQUE</text>
<polygon fill="#ffffff" stroke="transparent" points="8,-383 8,-404 190,-404 190,-383 8,-383"/>
<polygon fill="none" stroke="black" points="8,-383 8,-404 190,-404 190,-383 8,-383"/>
<text text-anchor="start" x="13" y="-391" font-family="Helvetica,sans-Serif" font-size="10.00">password_hash &#160;VARCHAR(255)</text>
<polygon fill="#ffffff" stroke="transparent" points="8,-362 8,-383 190,-383 190,-362 8,-362"/>
<polygon fill="none" stroke="black" points="8,-362 8,-383 190,-383 190,-362 8,-362"/>
<text text-anchor="start" x="13" y="-370" font-family="Helvetica,sans-Serif" font-size="10.00">telefono &#160;VARCHAR(30)</text>
<polygon fill="#ffffff" stroke="transparent" points="8,-341 8,-362 190,-362 190,-341 8,-341"/>
<polygon fill="none" stroke="black" points="8,-341 8,-362 190,-362 190,-341 8,-341"/>
<text text-anchor="start" x="13" y="-349" font-family="Helvetica,sans-Serif" font-size="10.00">rol &#160;TINYINT &#160;(0=admin,1=user)</text>
<polygon fill="#ffffff" stroke="transparent" points="8,-320 8,-341 190,-341 190,-320 8,-320"/>
<polygon fill="none" stroke="black" points="8,-320 8,-341 190,-341 190,-320 8,-320"/>
<text text-anchor="start" x="13" y="-328" font-family="Helvetica,sans-Serif" font-size="10.00">created_at / updated_at &#160;DATETIME</text>
</g>
<!-- destinos -->
<g id="node2" class="node">
<title>destinos</title>
<polygon fill="#0f766e" stroke="transparent" points="643,-129.5 643,-152.5 778,-152.5 778,-129.5 643,-129.5"/>
<polygon fill="none" stroke="black" points="643,-129.5 643,-152.5 778,-152.5 778,-129.5 643,-129.5"/>
<text text-anchor="start" x="681.5" y="-138.9" font-family="Helvetica,sans-Serif" font-weight="bold" font-size="12.00" fill="#ffffff">destinos</text>
<polygon fill="#ccfbf1" stroke="transparent" points="643,-108.5 643,-129.5 778,-129.5 778,-108.5 643,-108.5"/>
<polygon fill="none" stroke="black" points="643,-108.5 643,-129.5 778,-129.5 778,-108.5 643,-108.5"/>
<text text-anchor="start" x="648" y="-116.5" font-family="Helvetica,sans-Serif" font-size="10.00">🔑 id &#160;INT</text>
<polygon fill="#ffffff" stroke="transparent" points="643,-87.5 643,-108.5 778,-108.5 778,-87.5 643,-87.5"/>
<polygon fill="none" stroke="black" points="643,-87.5 643,-108.5 778,-108.5 778,-87.5 643,-87.5"/>
<text text-anchor="start" x="648" y="-95.5" font-family="Helvetica,sans-Serif" font-size="10.00">nombre &#160;VARCHAR(120)</text>
<polygon fill="#ffffff" stroke="transparent" points="643,-66.5 643,-87.5 778,-87.5 778,-66.5 643,-66.5"/>
<polygon fill="none" stroke="black" points="643,-66.5 643,-87.5 778,-87.5 778,-66.5 643,-66.5"/>
<text text-anchor="start" x="648" y="-74.5" font-family="Helvetica,sans-Serif" font-size="10.00">pais &#160;VARCHAR(100)</text>
<polygon fill="#ffffff" stroke="transparent" points="643,-45.5 643,-66.5 778,-66.5 778,-45.5 643,-45.5"/>
<polygon fill="none" stroke="black" points="643,-45.5 643,-66.5 778,-66.5 778,-45.5 643,-45.5"/>
<text text-anchor="start" x="648" y="-53.5" font-family="Helvetica,sans-Serif" font-size="10.00">continente &#160;VARCHAR(60)</text>
<polygon fill="#ffffff" stroke="transparent" points="643,-24.5 643,-45.5 778,-45.5 778,-24.5 643,-24.5"/>
<polygon fill="none" stroke="black" points="643,-24.5 643,-45.5 778,-45.5 778,-24.5 643,-24.5"/>
<text text-anchor="start" x="648" y="-32.5" font-family="Helvetica,sans-Serif" font-size="10.00">descripcion &#160;TEXT</text>
<polygon fill="#ffffff" stroke="transparent" points="643,-3.5 643,-24.5 778,-24.5 778,-3.5 643,-3.5"/>
<polygon fill="none" stroke="black" points="643,-3.5 643,-24.5 778,-24.5 778,-3.5 643,-3.5"/>
<text text-anchor="start" x="648" y="-11.5" font-family="Helvetica,sans-Serif" font-size="10.00">activo &#160;TINYINT</text>
</g>
<!-- ciudades_origen -->
<g id="node3" class="node">
<title>ciudades_origen</title>
<polygon fill="#0f766e" stroke="transparent" points="250,-457 250,-480 377,-480 377,-457 250,-457"/>
<polygon fill="none" stroke="black" points="250,-457 250,-480 377,-480 377,-457 250,-457"/>
<text text-anchor="start" x="259" y="-466.4" font-family="Helvetica,sans-Serif" font-weight="bold" font-size="12.00" fill="#ffffff">ciudades_origen</text>
<polygon fill="#ccfbf1" stroke="transparent" points="250,-436 250,-457 377,-457 377,-436 250,-436"/>
<polygon fill="none" stroke="black" points="250,-436 250,-457 377,-457 377,-436 250,-436"/>
<text text-anchor="start" x="255" y="-444" font-family="Helvetica,sans-Serif" font-size="10.00">🔑 id &#160;INT</text>
<polygon fill="#ffffff" stroke="transparent" points="250,-415 250,-436 377,-436 377,-415 250,-415"/>
<polygon fill="none" stroke="black" points="250,-415 250,-436 377,-436 377,-415 250,-415"/>
<text text-anchor="start" x="255" y="-423" font-family="Helvetica,sans-Serif" font-size="10.00">nombre &#160;VARCHAR(100)</text>
<polygon fill="#ffffff" stroke="transparent" points="250,-394 250,-415 377,-415 377,-394 250,-394"/>
<polygon fill="none" stroke="black" points="250,-394 250,-415 377,-415 377,-394 250,-394"/>
<text text-anchor="start" x="255" y="-402" font-family="Helvetica,sans-Serif" font-size="10.00">codigo &#160;VARCHAR(10)</text>
<polygon fill="#ffffff" stroke="transparent" points="250,-373 250,-394 377,-394 377,-373 250,-373"/>
<polygon fill="none" stroke="black" points="250,-373 250,-394 377,-394 377,-373 250,-373"/>
<text text-anchor="start" x="255" y="-381" font-family="Helvetica,sans-Serif" font-size="10.00">pais &#160;VARCHAR(80)</text>
<polygon fill="#ffffff" stroke="transparent" points="250,-352 250,-373 377,-373 377,-352 250,-352"/>
<polygon fill="none" stroke="black" points="250,-352 250,-373 377,-373 377,-352 250,-352"/>
<text text-anchor="start" x="255" y="-360" font-family="Helvetica,sans-Serif" font-size="10.00">activo &#160;TINYINT</text>
</g>
<!-- coches -->
<g id="node4" class="node">
<title>coches</title>
<polygon fill="#0f766e" stroke="transparent" points="436,-467 436,-490 570,-490 570,-467 436,-467"/>
<polygon fill="none" stroke="black" points="436,-467 436,-490 570,-490 570,-467 436,-467"/>
<text text-anchor="start" x="480" y="-476.4" font-family="Helvetica,sans-Serif" font-weight="bold" font-size="12.00" fill="#ffffff">coches</text>
<polygon fill="#ccfbf1" stroke="transparent" points="436,-446 436,-467 570,-467 570,-446 436,-446"/>
<polygon fill="none" stroke="black" points="436,-446 436,-467 570,-467 570,-446 436,-446"/>
<text text-anchor="start" x="441" y="-454" font-family="Helvetica,sans-Serif" font-size="10.00">🔑 id &#160;INT</text>
<polygon fill="#ffffff" stroke="transparent" points="436,-425 436,-446 570,-446 570,-425 436,-425"/>
<polygon fill="none" stroke="black" points="436,-425 436,-446 570,-446 570,-425 436,-425"/>
<text text-anchor="start" x="441" y="-433" font-family="Helvetica,sans-Serif" font-size="10.00">nombre &#160;VARCHAR(100)</text>
<polygon fill="#ffffff" stroke="transparent" points="436,-404 436,-425 570,-425 570,-404 436,-404"/>
<polygon fill="none" stroke="black" points="436,-404 436,-425 570,-425 570,-404 436,-404"/>
<text text-anchor="start" x="441" y="-412" font-family="Helvetica,sans-Serif" font-size="10.00">categoria &#160;VARCHAR(50)</text>
<polygon fill="#ffffff" stroke="transparent" points="436,-383 436,-404 570,-404 570,-383 436,-383"/>
<polygon fill="none" stroke="black" points="436,-383 436,-404 570,-404 570,-383 436,-383"/>
<text text-anchor="start" x="441" y="-391" font-family="Helvetica,sans-Serif" font-size="10.00">precio_dia &#160;DECIMAL(8,2)</text>
<polygon fill="#ffffff" stroke="transparent" points="436,-362 436,-383 570,-383 570,-362 436,-362"/>
<polygon fill="none" stroke="black" points="436,-362 436,-383 570,-383 570,-362 436,-362"/>
<text text-anchor="start" x="441" y="-370" font-family="Helvetica,sans-Serif" font-size="10.00">imagen &#160;VARCHAR(100)</text>
<polygon fill="#ffffff" stroke="transparent" points="436,-341 436,-362 570,-362 570,-341 436,-341"/>
<polygon fill="none" stroke="black" points="436,-341 436,-362 570,-362 570,-341 436,-341"/>
<text text-anchor="start" x="441" y="-349" font-family="Helvetica,sans-Serif" font-size="10.00">activo &#160;TINYINT</text>
</g>
<!-- paquetes -->
<g id="node5" class="node">
<title>paquetes</title>
<polygon fill="#0f766e" stroke="transparent" points="629,-583 629,-606 793,-606 793,-583 629,-583"/>
<polygon fill="none" stroke="black" points="629,-583 629,-606 793,-606 793,-583 629,-583"/>
<text text-anchor="start" x="679" y="-592.4" font-family="Helvetica,sans-Serif" font-weight="bold" font-size="12.00" fill="#ffffff">paquetes</text>
<polygon fill="#ccfbf1" stroke="transparent" points="629,-562 629,-583 793,-583 793,-562 629,-562"/>
<polygon fill="none" stroke="black" points="629,-562 629,-583 793,-583 793,-562 629,-562"/>
<text text-anchor="start" x="634" y="-570" font-family="Helvetica,sans-Serif" font-size="10.00">🔑 id &#160;INT</text>
<polygon fill="#fef3c7" stroke="transparent" points="629,-541 629,-562 793,-562 793,-541 629,-541"/>
<polygon fill="none" stroke="black" points="629,-541 629,-562 793,-562 793,-541 629,-541"/>
<text text-anchor="start" x="634" y="-549" font-family="Helvetica,sans-Serif" font-size="10.00">🔗 destino_id &#160;INT</text>
<polygon fill="#ffffff" stroke="transparent" points="629,-520 629,-541 793,-541 793,-520 629,-520"/>
<polygon fill="none" stroke="black" points="629,-520 629,-541 793,-541 793,-520 629,-520"/>
<text text-anchor="start" x="634" y="-528" font-family="Helvetica,sans-Serif" font-size="10.00">nombre &#160;VARCHAR(200)</text>
<polygon fill="#ffffff" stroke="transparent" points="629,-499 629,-520 793,-520 793,-499 629,-499"/>
<polygon fill="none" stroke="black" points="629,-499 629,-520 793,-520 793,-499 629,-499"/>
<text text-anchor="start" x="634" y="-507" font-family="Helvetica,sans-Serif" font-size="10.00">descripcion &#160;TEXT</text>
<polygon fill="#ffffff" stroke="transparent" points="629,-478 629,-499 793,-499 793,-478 629,-478"/>
<polygon fill="none" stroke="black" points="629,-478 629,-499 793,-499 793,-478 629,-478"/>
<text text-anchor="start" x="634" y="-486" font-family="Helvetica,sans-Serif" font-size="10.00">imagen_url &#160;VARCHAR(255)</text>
<polygon fill="#ffffff" stroke="transparent" points="629,-457 629,-478 793,-478 793,-457 629,-457"/>
<polygon fill="none" stroke="black" points="629,-457 629,-478 793,-478 793,-457 629,-457"/>
<text text-anchor="start" x="634" y="-465" font-family="Helvetica,sans-Serif" font-size="10.00">noches &#160;INT</text>
<polygon fill="#ffffff" stroke="transparent" points="629,-436 629,-457 793,-457 793,-436 629,-436"/>
<polygon fill="none" stroke="black" points="629,-436 629,-457 793,-457 793,-436 629,-436"/>
<text text-anchor="start" x="634" y="-444" font-family="Helvetica,sans-Serif" font-size="10.00">regimen &#160;ENUM</text>
<polygon fill="#ffffff" stroke="transparent" points="629,-415 629,-436 793,-436 793,-415 629,-415"/>
<polygon fill="none" stroke="black" points="629,-415 629,-436 793,-436 793,-415 629,-415"/>
<text text-anchor="start" x="634" y="-423" font-family="Helvetica,sans-Serif" font-size="10.00">tipo &#160;ENUM</text>
<polygon fill="#ffffff" stroke="transparent" points="629,-394 629,-415 793,-415 793,-394 629,-394"/>
<polygon fill="none" stroke="black" points="629,-394 629,-415 793,-415 793,-394 629,-394"/>
<text text-anchor="start" x="634" y="-402" font-family="Helvetica,sans-Serif" font-size="10.00">precio_persona &#160;DECIMAL(10,2)</text>
<polygon fill="#ffffff" stroke="transparent" points="629,-373 629,-394 793,-394 793,-373 629,-373"/>
<polygon fill="none" stroke="black" points="629,-373 629,-394 793,-394 793,-373 629,-373"/>
<text text-anchor="start" x="634" y="-381" font-family="Helvetica,sans-Serif" font-size="10.00">precio_original &#160;DECIMAL(10,2)</text>
<polygon fill="#ffffff" stroke="transparent" points="629,-352 629,-373 793,-373 793,-352 629,-352"/>
<polygon fill="none" stroke="black" points="629,-352 629,-373 793,-373 793,-352 629,-352"/>
<text text-anchor="start" x="634" y="-360" font-family="Helvetica,sans-Serif" font-size="10.00">estrellas &#160;INT</text>
<polygon fill="#ffffff" stroke="transparent" points="629,-331 629,-352 793,-352 793,-331 629,-331"/>
<polygon fill="none" stroke="black" points="629,-331 629,-352 793,-352 793,-331 629,-331"/>
<text text-anchor="start" x="634" y="-339" font-family="Helvetica,sans-Serif" font-size="10.00">aerolinea &#160;VARCHAR(100)</text>
<polygon fill="#ffffff" stroke="transparent" points="629,-310 629,-331 793,-331 793,-310 629,-310"/>
<polygon fill="none" stroke="black" points="629,-310 629,-331 793,-331 793,-310 629,-310"/>
<text text-anchor="start" x="634" y="-318" font-family="Helvetica,sans-Serif" font-size="10.00">badge / badge_tipo</text>
<polygon fill="#ffffff" stroke="transparent" points="629,-289 629,-310 793,-310 793,-289 629,-289"/>
<polygon fill="none" stroke="black" points="629,-289 629,-310 793,-310 793,-289 629,-289"/>
<text text-anchor="start" x="634" y="-297" font-family="Helvetica,sans-Serif" font-size="10.00">activo &#160;TINYINT</text>
<polygon fill="#ffffff" stroke="transparent" points="629,-268 629,-289 793,-289 793,-268 629,-268"/>
<polygon fill="none" stroke="black" points="629,-268 629,-289 793,-289 793,-268 629,-268"/>
<text text-anchor="start" x="634" y="-276" font-family="Helvetica,sans-Serif" font-size="10.00">plazas_disponibles &#160;INT</text>
<polygon fill="#ffffff" stroke="transparent" points="629,-247 629,-268 793,-268 793,-247 629,-247"/>
<polygon fill="none" stroke="black" points="629,-247 629,-268 793,-268 793,-247 629,-247"/>
<text text-anchor="start" x="634" y="-255" font-family="Helvetica,sans-Serif" font-size="10.00">atributos &#160;JSON</text>
<polygon fill="#ffffff" stroke="transparent" points="629,-226 629,-247 793,-247 793,-226 629,-226"/>
<polygon fill="none" stroke="black" points="629,-226 629,-247 793,-247 793,-226 629,-226"/>
<text text-anchor="start" x="634" y="-234" font-family="Helvetica,sans-Serif" font-size="10.00">created_at &#160;DATETIME</text>
</g>
<!-- paquetes&#45;&gt;destinos -->
<g id="edge1" class="edge">
<title>paquetes:fk_destino&#45;&gt;destinos:pk</title>
<path fill="none" stroke="#0f766e" stroke-width="1.3" d="M710,-530.87C710,-530.87 710,-134.77 710,-134.77"/>
<polygon fill="#0f766e" stroke="#0f766e" stroke-width="1.3" points="710,-139.77 714.5,-129.77 710,-134.77 710,-129.77 710,-129.77 710,-129.77 710,-134.77 705.5,-129.77 710,-139.77 710,-139.77"/>
<polygon fill="#0f766e" stroke="#0f766e" stroke-width="1.3" points="715,-539.87 705,-539.87 705,-537.87 715,-537.87 715,-539.87"/>
<polyline fill="none" stroke="#0f766e" stroke-width="1.3" points="710,-540.87 710,-535.87 "/>
<text text-anchor="middle" x="702" y="-132.57" font-family="Helvetica,sans-Serif" font-size="9.00">N:1</text>
</g>
<!-- reservas -->
<g id="node6" class="node">
<title>reservas</title>
<polygon fill="#0f766e" stroke="transparent" points="323,-952 323,-975 505,-975 505,-952 323,-952"/>
<polygon fill="none" stroke="black" points="323,-952 323,-975 505,-975 505,-952 323,-952"/>
<text text-anchor="start" x="384" y="-961.4" font-family="Helvetica,sans-Serif" font-weight="bold" font-size="12.00" fill="#ffffff">reservas</text>
<polygon fill="#ccfbf1" stroke="transparent" points="323,-931 323,-952 505,-952 505,-931 323,-931"/>
<polygon fill="none" stroke="black" points="323,-931 323,-952 505,-952 505,-931 323,-931"/>
<text text-anchor="start" x="328" y="-939" font-family="Helvetica,sans-Serif" font-size="10.00">🔑 id &#160;INT</text>
<polygon fill="#ffffff" stroke="transparent" points="323,-910 323,-931 505,-931 505,-910 323,-910"/>
<polygon fill="none" stroke="black" points="323,-910 323,-931 505,-931 505,-910 323,-910"/>
<text text-anchor="start" x="328" y="-918" font-family="Helvetica,sans-Serif" font-size="10.00">referencia &#160;VARCHAR(20) &#160;UNIQUE</text>
<polygon fill="#fef3c7" stroke="transparent" points="323,-889 323,-910 505,-910 505,-889 323,-889"/>
<polygon fill="none" stroke="black" points="323,-889 323,-910 505,-910 505,-889 323,-889"/>
<text text-anchor="start" x="328" y="-897" font-family="Helvetica,sans-Serif" font-size="10.00">🔗 usuario_id &#160;INT</text>
<polygon fill="#fef3c7" stroke="transparent" points="323,-868 323,-889 505,-889 505,-868 323,-868"/>
<polygon fill="none" stroke="black" points="323,-868 323,-889 505,-889 505,-868 323,-868"/>
<text text-anchor="start" x="328" y="-876" font-family="Helvetica,sans-Serif" font-size="10.00">🔗 paquete_id &#160;INT</text>
<polygon fill="#fef3c7" stroke="transparent" points="323,-847 323,-868 505,-868 505,-847 323,-847"/>
<polygon fill="none" stroke="black" points="323,-847 323,-868 505,-868 505,-847 323,-847"/>
<text text-anchor="start" x="328" y="-855" font-family="Helvetica,sans-Serif" font-size="10.00">🔗 origen_id &#160;INT</text>
<polygon fill="#fef3c7" stroke="transparent" points="323,-826 323,-847 505,-847 505,-826 323,-826"/>
<polygon fill="none" stroke="black" points="323,-826 323,-847 505,-847 505,-826 323,-826"/>
<text text-anchor="start" x="328" y="-834" font-family="Helvetica,sans-Serif" font-size="10.00">🔗 coche_id &#160;INT</text>
<polygon fill="#ffffff" stroke="transparent" points="323,-805 323,-826 505,-826 505,-805 323,-805"/>
<polygon fill="none" stroke="black" points="323,-805 323,-826 505,-826 505,-805 323,-805"/>
<text text-anchor="start" x="328" y="-813" font-family="Helvetica,sans-Serif" font-size="10.00">fecha_salida / fecha_regreso &#160;DATE</text>
<polygon fill="#ffffff" stroke="transparent" points="323,-784 323,-805 505,-805 505,-784 323,-784"/>
<polygon fill="none" stroke="black" points="323,-784 323,-805 505,-805 505,-784 323,-784"/>
<text text-anchor="start" x="328" y="-792" font-family="Helvetica,sans-Serif" font-size="10.00">num_adultos / num_ninos &#160;INT</text>
<polygon fill="#ffffff" stroke="transparent" points="323,-763 323,-784 505,-784 505,-763 323,-763"/>
<polygon fill="none" stroke="black" points="323,-763 323,-784 505,-784 505,-763 323,-763"/>
<text text-anchor="start" x="328" y="-771" font-family="Helvetica,sans-Serif" font-size="10.00">precio_total &#160;DECIMAL(10,2)</text>
<polygon fill="#ffffff" stroke="transparent" points="323,-742 323,-763 505,-763 505,-742 323,-742"/>
<polygon fill="none" stroke="black" points="323,-742 323,-763 505,-763 505,-742 323,-742"/>
<text text-anchor="start" x="328" y="-750" font-family="Helvetica,sans-Serif" font-size="10.00">seguro_cancelacion &#160;TINYINT</text>
<polygon fill="#ffffff" stroke="transparent" points="323,-721 323,-742 505,-742 505,-721 323,-721"/>
<polygon fill="none" stroke="black" points="323,-721 323,-742 505,-742 505,-721 323,-721"/>
<text text-anchor="start" x="328" y="-729" font-family="Helvetica,sans-Serif" font-size="10.00">precio_coche &#160;DECIMAL(8,2)</text>
<polygon fill="#ffffff" stroke="transparent" points="323,-700 323,-721 505,-721 505,-700 323,-700"/>
<polygon fill="none" stroke="black" points="323,-700 323,-721 505,-721 505,-700 323,-700"/>
<text text-anchor="start" x="328" y="-708" font-family="Helvetica,sans-Serif" font-size="10.00">estado &#160;ENUM(pend/conf/canc)</text>
<polygon fill="#ffffff" stroke="transparent" points="323,-679 323,-700 505,-700 505,-679 323,-679"/>
<polygon fill="none" stroke="black" points="323,-679 323,-700 505,-700 505,-679 323,-679"/>
<text text-anchor="start" x="328" y="-687" font-family="Helvetica,sans-Serif" font-size="10.00">created_at / updated_at &#160;DATETIME</text>
</g>
<!-- reservas&#45;&gt;usuarios -->
<g id="edge2" class="edge">
<title>reservas:fk_usuario&#45;&gt;usuarios:pk</title>
<path fill="none" stroke="#0f766e" stroke-width="1.3" d="M403.84,-711C403.84,-711 190.75,-711 190.75,-711 190.75,-711 190.75,-483.17 190.75,-483.17"/>
<polygon fill="#0f766e" stroke="#0f766e" stroke-width="1.3" points="403.84,-711 413.84,-715.5 408.84,-711 413.84,-711 413.84,-711 413.84,-711 408.84,-711 413.84,-706.5 403.84,-711 403.84,-711"/>
<polygon fill="#0f766e" stroke="#0f766e" stroke-width="1.3" points="185.75,-479.17 195.75,-479.17 195.75,-481.17 185.75,-481.17 185.75,-479.17"/>
<polyline fill="none" stroke="#0f766e" stroke-width="1.3" points="190.75,-478.17 190.75,-483.17 "/>
<text text-anchor="middle" x="405.84" y="-713.8" font-family="Helvetica,sans-Serif" font-size="9.00">N:1</text>
</g>
<!-- reservas&#45;&gt;ciudades_origen -->
<g id="edge4" class="edge">
<title>reservas:fk_origen&#45;&gt;ciudades_origen:pk</title>
<path fill="none" stroke="#0f766e" stroke-width="1.3" d="M349.75,-836.58C349.75,-836.58 349.75,-462.05 349.75,-462.05"/>
<polygon fill="#0f766e" stroke="#0f766e" stroke-width="1.3" points="349.75,-467.05 354.25,-457.05 349.75,-462.05 349.75,-457.05 349.75,-457.05 349.75,-457.05 349.75,-462.05 345.25,-457.05 349.75,-467.05 349.75,-467.05"/>
<polygon fill="#0f766e" stroke="#0f766e" stroke-width="1.3" points="354.75,-845.58 344.75,-845.58 344.75,-843.58 354.75,-843.58 354.75,-845.58"/>
<polyline fill="none" stroke="#0f766e" stroke-width="1.3" points="349.75,-846.58 349.75,-841.58 "/>
<text text-anchor="middle" x="341.75" y="-459.85" font-family="Helvetica,sans-Serif" font-size="9.00">N:1</text>
</g>
<!-- reservas&#45;&gt;coches -->
<g id="edge5" class="edge">
<title>reservas:fk_coche&#45;&gt;coches:pk</title>
<path fill="none" stroke="#0f766e" stroke-width="1.3" d="M456.33,-815.63C456.33,-815.63 456.33,-472.24 456.33,-472.24"/>
<polygon fill="#0f766e" stroke="#0f766e" stroke-width="1.3" points="456.33,-477.24 460.83,-467.24 456.33,-472.24 456.33,-467.24 456.33,-467.24 456.33,-467.24 456.33,-472.24 451.83,-467.24 456.33,-477.24 456.33,-477.24"/>
<polygon fill="#0f766e" stroke="#0f766e" stroke-width="1.3" points="461.33,-824.63 451.33,-824.63 451.33,-822.63 461.33,-822.63 461.33,-824.63"/>
<polyline fill="none" stroke="#0f766e" stroke-width="1.3" points="456.33,-825.63 456.33,-820.63 "/>
<text text-anchor="middle" x="448.33" y="-470.04" font-family="Helvetica,sans-Serif" font-size="9.00">N:1</text>
</g>
<!-- reservas&#45;&gt;paquetes -->
<g id="edge3" class="edge">
<title>reservas:fk_paquete&#45;&gt;paquetes:pk</title>
<path fill="none" stroke="#0f766e" stroke-width="1.3" d="M484.67,-857.72C484.67,-857.72 484.67,-562 484.67,-562 484.67,-562 623.97,-562 623.97,-562"/>
<polygon fill="#0f766e" stroke="#0f766e" stroke-width="1.3" points="484.67,-857.72 480.17,-867.72 484.67,-862.72 484.67,-867.72 484.67,-867.72 484.67,-867.72 484.67,-862.72 489.17,-867.72 484.67,-857.72 484.67,-857.72"/>
<polygon fill="#0f766e" stroke="#0f766e" stroke-width="1.3" points="627.97,-557 627.97,-567 625.97,-567 625.97,-557 627.97,-557"/>
<polyline fill="none" stroke="#0f766e" stroke-width="1.3" points="628.97,-562 623.97,-562 "/>
<text text-anchor="middle" x="476.67" y="-870.52" font-family="Helvetica,sans-Serif" font-size="9.00">N:1</text>
</g>
<!-- viajeros -->
<g id="node7" class="node">
<title>viajeros</title>
<polygon fill="#0f766e" stroke="transparent" points="135,-1226 135,-1249 281,-1249 281,-1226 135,-1226"/>
<polygon fill="none" stroke="black" points="135,-1226 135,-1249 281,-1249 281,-1226 135,-1226"/>
<text text-anchor="start" x="181" y="-1235.4" font-family="Helvetica,sans-Serif" font-weight="bold" font-size="12.00" fill="#ffffff">viajeros</text>
<polygon fill="#ccfbf1" stroke="transparent" points="135,-1205 135,-1226 281,-1226 281,-1205 135,-1205"/>
<polygon fill="none" stroke="black" points="135,-1205 135,-1226 281,-1226 281,-1205 135,-1205"/>
<text text-anchor="start" x="140" y="-1213" font-family="Helvetica,sans-Serif" font-size="10.00">🔑 id &#160;INT</text>
<polygon fill="#fef3c7" stroke="transparent" points="135,-1184 135,-1205 281,-1205 281,-1184 135,-1184"/>
<polygon fill="none" stroke="black" points="135,-1184 135,-1205 281,-1205 281,-1184 135,-1184"/>
<text text-anchor="start" x="140" y="-1192" font-family="Helvetica,sans-Serif" font-size="10.00">🔗 reserva_id &#160;INT</text>
<polygon fill="#ffffff" stroke="transparent" points="135,-1163 135,-1184 281,-1184 281,-1163 135,-1163"/>
<polygon fill="none" stroke="black" points="135,-1163 135,-1184 281,-1184 281,-1163 135,-1163"/>
<text text-anchor="start" x="140" y="-1171" font-family="Helvetica,sans-Serif" font-size="10.00">nombre &#160;VARCHAR(100)</text>
<polygon fill="#ffffff" stroke="transparent" points="135,-1142 135,-1163 281,-1163 281,-1142 135,-1142"/>
<polygon fill="none" stroke="black" points="135,-1142 135,-1163 281,-1163 281,-1142 135,-1142"/>
<text text-anchor="start" x="140" y="-1150" font-family="Helvetica,sans-Serif" font-size="10.00">apellidos &#160;VARCHAR(150)</text>
<polygon fill="#ffffff" stroke="transparent" points="135,-1121 135,-1142 281,-1142 281,-1121 135,-1121"/>
<polygon fill="none" stroke="black" points="135,-1121 135,-1142 281,-1142 281,-1121 135,-1121"/>
<text text-anchor="start" x="140" y="-1129" font-family="Helvetica,sans-Serif" font-size="10.00">documento &#160;VARCHAR(30)</text>
<polygon fill="#ffffff" stroke="transparent" points="135,-1100 135,-1121 281,-1121 281,-1100 135,-1100"/>
<polygon fill="none" stroke="black" points="135,-1100 135,-1121 281,-1121 281,-1100 135,-1100"/>
<text text-anchor="start" x="140" y="-1108" font-family="Helvetica,sans-Serif" font-size="10.00">fecha_nacimiento &#160;DATE</text>
<polygon fill="#ffffff" stroke="transparent" points="135,-1079 135,-1100 281,-1100 281,-1079 135,-1079"/>
<polygon fill="none" stroke="black" points="135,-1079 135,-1100 281,-1100 281,-1079 135,-1079"/>
<text text-anchor="start" x="140" y="-1087" font-family="Helvetica,sans-Serif" font-size="10.00">nacionalidad &#160;VARCHAR(80)</text>
<polygon fill="#ffffff" stroke="transparent" points="135,-1058 135,-1079 281,-1079 281,-1058 135,-1058"/>
<polygon fill="none" stroke="black" points="135,-1058 135,-1079 281,-1079 281,-1058 135,-1058"/>
<text text-anchor="start" x="140" y="-1066" font-family="Helvetica,sans-Serif" font-size="10.00">tipo &#160;ENUM(adulto/nino)</text>
</g>
<!-- viajeros&#45;&gt;reservas -->
<g id="edge6" class="edge">
<title>viajeros:fk_reserva&#45;&gt;reservas:pk</title>
<path fill="none" stroke="#0f766e" stroke-width="1.3" d="M218.08,-1070C218.08,-1070 323.75,-1070 323.75,-1070 323.75,-1070 323.75,-957.04 323.75,-957.04"/>
<polygon fill="#0f766e" stroke="#0f766e" stroke-width="1.3" points="218.08,-1070 208.08,-1065.5 213.08,-1070 208.08,-1070 208.08,-1070 208.08,-1070 213.08,-1070 208.08,-1074.5 218.08,-1070 218.08,-1070"/>
<polygon fill="#0f766e" stroke="#0f766e" stroke-width="1.3" points="318.75,-953.04 328.75,-953.04 328.75,-955.04 318.75,-955.04 318.75,-953.04"/>
<polyline fill="none" stroke="#0f766e" stroke-width="1.3" points="323.75,-952.04 323.75,-957.04 "/>
<text text-anchor="middle" x="200.08" y="-1072.8" font-family="Helvetica,sans-Serif" font-size="9.00">N:1</text>
</g>
<!-- contactos_reserva -->
<g id="node8" class="node">
<title>contactos_reserva</title>
<polygon fill="#0f766e" stroke="transparent" points="341,-1195 341,-1218 486,-1218 486,-1195 341,-1195"/>
<polygon fill="none" stroke="black" points="341,-1195 341,-1218 486,-1218 486,-1195 341,-1195"/>
<text text-anchor="start" x="351.5" y="-1204.4" font-family="Helvetica,sans-Serif" font-weight="bold" font-size="12.00" fill="#ffffff">contactos_reserva</text>
<polygon fill="#ccfbf1" stroke="transparent" points="341,-1174 341,-1195 486,-1195 486,-1174 341,-1174"/>
<polygon fill="none" stroke="black" points="341,-1174 341,-1195 486,-1195 486,-1174 341,-1174"/>
<text text-anchor="start" x="346" y="-1182" font-family="Helvetica,sans-Serif" font-size="10.00">🔑 id &#160;INT</text>
<polygon fill="#fef3c7" stroke="transparent" points="341,-1153 341,-1174 486,-1174 486,-1153 341,-1153"/>
<polygon fill="none" stroke="black" points="341,-1153 341,-1174 486,-1174 486,-1153 341,-1153"/>
<text text-anchor="start" x="346" y="-1161" font-family="Helvetica,sans-Serif" font-size="10.00">🔗 reserva_id &#160;INT &#160;UNIQUE</text>
<polygon fill="#ffffff" stroke="transparent" points="341,-1132 341,-1153 486,-1153 486,-1132 341,-1132"/>
<polygon fill="none" stroke="black" points="341,-1132 341,-1153 486,-1153 486,-1132 341,-1132"/>
<text text-anchor="start" x="346" y="-1140" font-family="Helvetica,sans-Serif" font-size="10.00">telefono &#160;VARCHAR(30)</text>
<polygon fill="#ffffff" stroke="transparent" points="341,-1111 341,-1132 486,-1132 486,-1111 341,-1111"/>
<polygon fill="none" stroke="black" points="341,-1111 341,-1132 486,-1132 486,-1111 341,-1111"/>
<text text-anchor="start" x="346" y="-1119" font-family="Helvetica,sans-Serif" font-size="10.00">email &#160;VARCHAR(150)</text>
<polygon fill="#ffffff" stroke="transparent" points="341,-1090 341,-1111 486,-1111 486,-1090 341,-1090"/>
<polygon fill="none" stroke="black" points="341,-1090 341,-1111 486,-1111 486,-1090 341,-1090"/>
<text text-anchor="start" x="346" y="-1098" font-family="Helvetica,sans-Serif" font-size="10.00">comentarios &#160;TEXT</text>
</g>
<!-- contactos_reserva&#45;&gt;reservas -->
<g id="edge9" class="edge">
<title>contactos_reserva:fk_reserva&#45;&gt;reservas:pk</title>
<path fill="none" stroke="#0f766e" stroke-width="1.3" d="M413,-1147.99C413,-1147.99 413,-957.05 413,-957.05"/>
<polygon fill="#0f766e" stroke="#0f766e" stroke-width="1.3" points="408,-953.05 418,-953.05 418,-955.05 408,-955.05 408,-953.05"/>
<polyline fill="none" stroke="#0f766e" stroke-width="1.3" points="413,-952.05 413,-957.05 "/>
<polygon fill="#0f766e" stroke="#0f766e" stroke-width="1.3" points="418,-1151.99 408,-1151.99 408,-1149.99 418,-1149.99 418,-1151.99"/>
<polyline fill="none" stroke="#0f766e" stroke-width="1.3" points="413,-1152.99 413,-1147.99 "/>
<text text-anchor="middle" x="405" y="-954.85" font-family="Helvetica,sans-Serif" font-size="9.00">1:1</text>
</g>
<!-- pagos -->
<g id="node9" class="node">
<title>pagos</title>
<polygon fill="#0f766e" stroke="transparent" points="545,-1237 545,-1260 744,-1260 744,-1237 545,-1237"/>
<polygon fill="none" stroke="black" points="545,-1237 545,-1260 744,-1260 744,-1237 545,-1237"/>
<text text-anchor="start" x="624" y="-1246.4" font-family="Helvetica,sans-Serif" font-weight="bold" font-size="12.00" fill="#ffffff">pagos</text>
<polygon fill="#ccfbf1" stroke="transparent" points="545,-1216 545,-1237 744,-1237 744,-1216 545,-1216"/>
<polygon fill="none" stroke="black" points="545,-1216 545,-1237 744,-1237 744,-1216 545,-1216"/>
<text text-anchor="start" x="550" y="-1224" font-family="Helvetica,sans-Serif" font-size="10.00">🔑 id &#160;INT</text>
<polygon fill="#fef3c7" stroke="transparent" points="545,-1195 545,-1216 744,-1216 744,-1195 545,-1195"/>
<polygon fill="none" stroke="black" points="545,-1195 545,-1216 744,-1216 744,-1195 545,-1195"/>
<text text-anchor="start" x="550" y="-1203" font-family="Helvetica,sans-Serif" font-size="10.00">🔗 reserva_id &#160;INT</text>
<polygon fill="#ffffff" stroke="transparent" points="545,-1174 545,-1195 744,-1195 744,-1174 545,-1174"/>
<polygon fill="none" stroke="black" points="545,-1174 545,-1195 744,-1195 744,-1174 545,-1174"/>
<text text-anchor="start" x="550" y="-1182" font-family="Helvetica,sans-Serif" font-size="10.00">transaccion_id &#160;VARCHAR(30) &#160;UNIQUE</text>
<polygon fill="#ffffff" stroke="transparent" points="545,-1153 545,-1174 744,-1174 744,-1153 545,-1153"/>
<polygon fill="none" stroke="black" points="545,-1153 545,-1174 744,-1174 744,-1153 545,-1153"/>
<text text-anchor="start" x="550" y="-1161" font-family="Helvetica,sans-Serif" font-size="10.00">metodo &#160;VARCHAR(30)</text>
<polygon fill="#ffffff" stroke="transparent" points="545,-1132 545,-1153 744,-1153 744,-1132 545,-1132"/>
<polygon fill="none" stroke="black" points="545,-1132 545,-1153 744,-1153 744,-1132 545,-1132"/>
<text text-anchor="start" x="550" y="-1140" font-family="Helvetica,sans-Serif" font-size="10.00">titular &#160;VARCHAR(200)</text>
<polygon fill="#ffffff" stroke="transparent" points="545,-1111 545,-1132 744,-1132 744,-1111 545,-1111"/>
<polygon fill="none" stroke="black" points="545,-1111 545,-1132 744,-1132 744,-1111 545,-1111"/>
<text text-anchor="start" x="550" y="-1119" font-family="Helvetica,sans-Serif" font-size="10.00">ultimos_digitos &#160;CHAR(4)</text>
<polygon fill="#ffffff" stroke="transparent" points="545,-1090 545,-1111 744,-1111 744,-1090 545,-1090"/>
<polygon fill="none" stroke="black" points="545,-1090 545,-1111 744,-1111 744,-1090 545,-1090"/>
<text text-anchor="start" x="550" y="-1098" font-family="Helvetica,sans-Serif" font-size="10.00">importe &#160;DECIMAL(10,2)</text>
<polygon fill="#ffffff" stroke="transparent" points="545,-1069 545,-1090 744,-1090 744,-1069 545,-1069"/>
<polygon fill="none" stroke="black" points="545,-1069 545,-1090 744,-1090 744,-1069 545,-1069"/>
<text text-anchor="start" x="550" y="-1077" font-family="Helvetica,sans-Serif" font-size="10.00">estado &#160;ENUM</text>
<polygon fill="#ffffff" stroke="transparent" points="545,-1048 545,-1069 744,-1069 744,-1048 545,-1048"/>
<polygon fill="none" stroke="black" points="545,-1048 545,-1069 744,-1069 744,-1048 545,-1048"/>
<text text-anchor="start" x="550" y="-1056" font-family="Helvetica,sans-Serif" font-size="10.00">created_at &#160;DATETIME</text>
</g>
<!-- pagos&#45;&gt;reservas -->
<g id="edge7" class="edge">
<title>pagos:fk_reserva&#45;&gt;reservas:pk</title>
<path fill="none" stroke="#0f766e" stroke-width="1.3" d="M634.9,-1049C634.9,-1049 503.25,-1049 503.25,-1049 503.25,-1049 503.25,-957.26 503.25,-957.26"/>
<polygon fill="#0f766e" stroke="#0f766e" stroke-width="1.3" points="634.9,-1049 644.9,-1053.5 639.9,-1049 644.9,-1049 644.9,-1049 644.9,-1049 639.9,-1049 644.9,-1044.5 634.9,-1049 634.9,-1049"/>
<polygon fill="#0f766e" stroke="#0f766e" stroke-width="1.3" points="498.25,-953.26 508.25,-953.26 508.25,-955.26 498.25,-955.26 498.25,-953.26"/>
<polyline fill="none" stroke="#0f766e" stroke-width="1.3" points="503.25,-952.26 503.25,-957.26 "/>
<text text-anchor="middle" x="636.9" y="-1041.8" font-family="Helvetica,sans-Serif" font-size="9.00">N:1</text>
</g>
<!-- password_resets -->
<g id="node10" class="node">
<title>password_resets</title>
<polygon fill="#0f766e" stroke="transparent" points="21,-878 21,-901 176,-901 176,-878 21,-878"/>
<polygon fill="none" stroke="black" points="21,-878 21,-901 176,-901 176,-878 21,-878"/>
<text text-anchor="start" x="41" y="-887.4" font-family="Helvetica,sans-Serif" font-weight="bold" font-size="12.00" fill="#ffffff">password_resets</text>
<polygon fill="#ccfbf1" stroke="transparent" points="21,-857 21,-878 176,-878 176,-857 21,-857"/>
<polygon fill="none" stroke="black" points="21,-857 21,-878 176,-878 176,-857 21,-857"/>
<text text-anchor="start" x="26" y="-865" font-family="Helvetica,sans-Serif" font-size="10.00">🔑 id &#160;INT</text>
<polygon fill="#fef3c7" stroke="transparent" points="21,-836 21,-857 176,-857 176,-836 21,-836"/>
<polygon fill="none" stroke="black" points="21,-836 21,-857 176,-857 176,-836 21,-836"/>
<text text-anchor="start" x="26" y="-844" font-family="Helvetica,sans-Serif" font-size="10.00">🔗 usuario_id &#160;INT</text>
<polygon fill="#ffffff" stroke="transparent" points="21,-815 21,-836 176,-836 176,-815 21,-815"/>
<polygon fill="none" stroke="black" points="21,-815 21,-836 176,-836 176,-815 21,-815"/>
<text text-anchor="start" x="26" y="-823" font-family="Helvetica,sans-Serif" font-size="10.00">token &#160;VARCHAR(20) &#160;UNIQUE</text>
<polygon fill="#ffffff" stroke="transparent" points="21,-794 21,-815 176,-815 176,-794 21,-794"/>
<polygon fill="none" stroke="black" points="21,-794 21,-815 176,-815 176,-794 21,-794"/>
<text text-anchor="start" x="26" y="-802" font-family="Helvetica,sans-Serif" font-size="10.00">expires_at &#160;DATETIME</text>
<polygon fill="#ffffff" stroke="transparent" points="21,-773 21,-794 176,-794 176,-773 21,-773"/>
<polygon fill="none" stroke="black" points="21,-773 21,-794 176,-794 176,-773 21,-773"/>
<text text-anchor="start" x="26" y="-781" font-family="Helvetica,sans-Serif" font-size="10.00">used &#160;TINYINT</text>
<polygon fill="#ffffff" stroke="transparent" points="21,-752 21,-773 176,-773 176,-752 21,-752"/>
<polygon fill="none" stroke="black" points="21,-752 21,-773 176,-773 176,-752 21,-752"/>
<text text-anchor="start" x="26" y="-760" font-family="Helvetica,sans-Serif" font-size="10.00">created_at &#160;DATETIME</text>
</g>
<!-- password_resets&#45;&gt;usuarios -->
<g id="edge8" class="edge">
<title>password_resets:fk_usuario&#45;&gt;usuarios:pk</title>
<path fill="none" stroke="#0f766e" stroke-width="1.3" d="M98,-825.96C98,-825.96 98,-493.29 98,-493.29"/>
<polygon fill="#0f766e" stroke="#0f766e" stroke-width="1.3" points="98,-498.29 102.5,-488.29 98,-493.29 98,-488.29 98,-488.29 98,-488.29 98,-493.29 93.5,-488.29 98,-498.29 98,-498.29"/>
<polygon fill="#0f766e" stroke="#0f766e" stroke-width="1.3" points="103,-834.96 93,-834.96 93,-832.96 103,-832.96 103,-834.96"/>
<polyline fill="none" stroke="#0f766e" stroke-width="1.3" points="98,-835.96 98,-830.96 "/>
<text text-anchor="middle" x="90" y="-491.09" font-family="Helvetica,sans-Serif" font-size="9.00">N:1</text>
</g>
<!-- login_attempts -->
<g id="node11" class="node">
<title>login_attempts</title>
<polygon fill="#0f766e" stroke="transparent" points="803,-1195 803,-1218 921,-1218 921,-1195 803,-1195"/>
<polygon fill="none" stroke="black" points="803,-1195 803,-1218 921,-1218 921,-1195 803,-1195"/>
<text text-anchor="start" x="811" y="-1204.4" font-family="Helvetica,sans-Serif" font-weight="bold" font-size="12.00" fill="#ffffff">login_attempts</text>
<polygon fill="#ccfbf1" stroke="transparent" points="803,-1174 803,-1195 921,-1195 921,-1174 803,-1174"/>
<polygon fill="none" stroke="black" points="803,-1174 803,-1195 921,-1195 921,-1174 803,-1174"/>
<text text-anchor="start" x="808" y="-1182" font-family="Helvetica,sans-Serif" font-size="10.00">🔑 id &#160;INT</text>
<polygon fill="#ffffff" stroke="transparent" points="803,-1153 803,-1174 921,-1174 921,-1153 803,-1153"/>
<polygon fill="none" stroke="black" points="803,-1153 803,-1174 921,-1174 921,-1153 803,-1153"/>
<text text-anchor="start" x="808" y="-1161" font-family="Helvetica,sans-Serif" font-size="10.00">ip &#160;VARCHAR(45)</text>
<polygon fill="#ffffff" stroke="transparent" points="803,-1132 803,-1153 921,-1153 921,-1132 803,-1132"/>
<polygon fill="none" stroke="black" points="803,-1132 803,-1153 921,-1153 921,-1132 803,-1132"/>
<text text-anchor="start" x="808" y="-1140" font-family="Helvetica,sans-Serif" font-size="10.00">action &#160;VARCHAR(50)</text>
<polygon fill="#ffffff" stroke="transparent" points="803,-1111 803,-1132 921,-1132 921,-1111 803,-1111"/>
<polygon fill="none" stroke="black" points="803,-1111 803,-1132 921,-1132 921,-1111 803,-1111"/>
<text text-anchor="start" x="808" y="-1119" font-family="Helvetica,sans-Serif" font-size="10.00">created_at &#160;DATETIME</text>
<polygon fill="#ffffff" stroke="transparent" points="803,-1090 803,-1111 921,-1111 921,-1090 803,-1090"/>
<polygon fill="none" stroke="black" points="803,-1090 803,-1111 921,-1111 921,-1090 803,-1090"/>
<text text-anchor="start" x="808" y="-1098" font-family="Helvetica,sans-Serif" font-size="10.00">(sin clave foranea)</text>
</g>
<!-- servicios -->
<g id="node12" class="node">
<title>servicios</title>
<polygon fill="#7c3aed" stroke="transparent" points="820,-131.5 820,-154.5 975,-154.5 975,-131.5 820,-131.5"/>
<polygon fill="none" stroke="black" points="820,-131.5 820,-154.5 975,-154.5 975,-131.5 820,-131.5"/>
<text text-anchor="start" x="868" y="-140.9" font-family="Helvetica,sans-Serif" font-weight="bold" font-size="12.00" fill="#ffffff">servicios</text>
<polygon fill="#ede9fe" stroke="transparent" points="820,-110.5 820,-131.5 975,-131.5 975,-110.5 820,-110.5"/>
<polygon fill="none" stroke="black" points="820,-110.5 820,-131.5 975,-131.5 975,-110.5 820,-110.5"/>
<text text-anchor="start" x="825" y="-118.5" font-family="Helvetica,sans-Serif" font-size="10.00">🔑 id &#160;INT</text>
<polygon fill="#ffffff" stroke="transparent" points="820,-89.5 820,-110.5 975,-110.5 975,-89.5 820,-89.5"/>
<polygon fill="none" stroke="black" points="820,-89.5 820,-110.5 975,-110.5 975,-89.5 820,-89.5"/>
<text text-anchor="start" x="825" y="-97.5" font-family="Helvetica,sans-Serif" font-size="10.00">nombre &#160;VARCHAR(100)</text>
<polygon fill="#ffffff" stroke="transparent" points="820,-68.5 820,-89.5 975,-89.5 975,-68.5 820,-68.5"/>
<polygon fill="none" stroke="black" points="820,-68.5 820,-89.5 975,-89.5 975,-68.5 820,-68.5"/>
<text text-anchor="start" x="825" y="-76.5" font-family="Helvetica,sans-Serif" font-size="10.00">icono &#160;VARCHAR(50)</text>
<polygon fill="#ffffff" stroke="transparent" points="820,-47.5 820,-68.5 975,-68.5 975,-47.5 820,-47.5"/>
<polygon fill="none" stroke="black" points="820,-47.5 820,-68.5 975,-68.5 975,-47.5 820,-47.5"/>
<text text-anchor="start" x="825" y="-55.5" font-family="Helvetica,sans-Serif" font-size="10.00">descripcion &#160;VARCHAR(200)</text>
<polygon fill="#ffffff" stroke="transparent" points="820,-26.5 820,-47.5 975,-47.5 975,-26.5 820,-26.5"/>
<polygon fill="none" stroke="black" points="820,-26.5 820,-47.5 975,-47.5 975,-26.5 820,-26.5"/>
<text text-anchor="start" x="825" y="-34.5" font-family="Helvetica,sans-Serif" font-size="10.00">activo &#160;TINYINT</text>
</g>
<!-- paquete_servicios -->
<g id="node13" class="node">
<title>paquete_servicios</title>
<polygon fill="#7c3aed" stroke="transparent" points="820,-455 820,-478 975,-478 975,-455 820,-455"/>
<polygon fill="none" stroke="black" points="820,-455 820,-478 975,-478 975,-455 820,-455"/>
<text text-anchor="start" x="837" y="-464.4" font-family="Helvetica,sans-Serif" font-weight="bold" font-size="12.00" fill="#ffffff">paquete_servicios</text>
<polygon fill="#fef3c7" stroke="transparent" points="820,-434 820,-455 975,-455 975,-434 820,-434"/>
<polygon fill="none" stroke="black" points="820,-434 820,-455 975,-455 975,-434 820,-434"/>
<text text-anchor="start" x="825" y="-442" font-family="Helvetica,sans-Serif" font-size="10.00">🔗🔑 paquete_id &#160;INT</text>
<polygon fill="#fef3c7" stroke="transparent" points="820,-413 820,-434 975,-434 975,-413 820,-413"/>
<polygon fill="none" stroke="black" points="820,-413 820,-434 975,-434 975,-413 820,-413"/>
<text text-anchor="start" x="825" y="-421" font-family="Helvetica,sans-Serif" font-size="10.00">🔗🔑 servicio_id &#160;INT</text>
</g>
<!-- paquetes->paquete_servicios (1:N) -->
<g id="edge10" class="edge">
<title>paquetes:fk_paqsvc&#45;&gt;paquete_servicios:pk_paquete</title>
<path fill="none" stroke="#7c3aed" stroke-width="1.3" d="M793,-541C793,-541 893,-541 893,-541 893,-541 893,-478 893,-478"/>
<polygon fill="#7c3aed" stroke="#7c3aed" stroke-width="1.3" points="793,-541 783,-545.5 788,-541 783,-541 783,-541 783,-541 788,-541 783,-536.5 793,-541 793,-541"/>
<polygon fill="#7c3aed" stroke="#7c3aed" stroke-width="1.3" points="888,-474 898,-474 898,-476 888,-476 888,-474"/>
<polyline fill="none" stroke="#7c3aed" stroke-width="1.3" points="893,-473 893,-478 "/>
<text text-anchor="middle" x="843" y="-543.8" font-family="Helvetica,sans-Serif" font-size="9.00" fill="#7c3aed">1:N</text>
</g>
<!-- servicios->paquete_servicios (1:N) -->
<g id="edge11" class="edge">
<title>servicios:fk_svcsvc&#45;&gt;paquete_servicios:pk_servicio</title>
<path fill="none" stroke="#7c3aed" stroke-width="1.3" d="M893,-110.5C893,-110.5 893,-413 893,-413"/>
<polygon fill="#7c3aed" stroke="#7c3aed" stroke-width="1.3" points="893,-110.5 897.5,-120.5 893,-115.5 893,-120.5 893,-120.5 893,-120.5 893,-115.5 888.5,-120.5 893,-110.5 893,-110.5"/>
<polygon fill="#7c3aed" stroke="#7c3aed" stroke-width="1.3" points="888,-409 898,-409 898,-411 888,-411 888,-409"/>
<polyline fill="none" stroke="#7c3aed" stroke-width="1.3" points="893,-408 893,-413 "/>
<text text-anchor="middle" x="901" y="-257" font-family="Helvetica,sans-Serif" font-size="9.00" fill="#7c3aed">1:N</text>
</g>
<!-- Etiqueta N:M global -->
<g id="nm_label">
<rect x="833" y="653" width="80" height="22" rx="5" fill="#7c3aed" opacity="0.15" stroke="#7c3aed" stroke-width="1"/>
<text text-anchor="middle" x="873" y="668" font-family="Helvetica,sans-Serif" font-weight="bold" font-size="11.00" fill="#7c3aed">N:M global</text>
</g>
</g>
</svg>
